<mxfile host="app.diagrams.net" modified="2021-08-10T06:00:55.982Z" agent="5.0 (Windows NT 10.0; Win64; x64) AppleWebKit/537.36 (KHTML, like Gecko) Chrome/92.0.4515.107 Safari/537.36 Edg/92.0.902.62" etag="l14dHiA5V43CwfVRbvWz" version="14.9.5" type="github">
  <diagram id="C5RBs43oDa-KdzZeNtuy" name="Page-1">
    <mxGraphModel dx="1718" dy="2104" grid="1" gridSize="10" guides="1" tooltips="1" connect="1" arrows="1" fold="1" page="1" pageScale="1" pageWidth="827" pageHeight="1169" math="0" shadow="0">
      <root>
        <mxCell id="WIyWlLk6GJQsqaUBKTNV-0" />
        <mxCell id="WIyWlLk6GJQsqaUBKTNV-1" parent="WIyWlLk6GJQsqaUBKTNV-0" />
        <mxCell id="aGjLEU1FE01erFLO_7JB-48" value="" style="verticalLabelPosition=bottom;verticalAlign=top;html=1;shape=mxgraph.basic.patternFillRect;fillStyle=diag;step=5;fillStrokeWidth=0.2;fillStrokeColor=#dddddd;fillColor=#B2C9AB;strokeColor=#788AA3;fontColor=#46495D;" parent="WIyWlLk6GJQsqaUBKTNV-1" vertex="1">
          <mxGeometry x="540" y="476" width="80" height="175" as="geometry" />
        </mxCell>
        <mxCell id="aGjLEU1FE01erFLO_7JB-39" value="" style="verticalLabelPosition=bottom;verticalAlign=top;html=1;shape=mxgraph.basic.patternFillRect;fillStyle=diag;step=5;fillStrokeWidth=0.2;fillStrokeColor=#dddddd;fillColor=#B2C9AB;strokeColor=#788AA3;fontColor=#46495D;" parent="WIyWlLk6GJQsqaUBKTNV-1" vertex="1">
          <mxGeometry x="310" y="691" width="225" height="210" as="geometry" />
        </mxCell>
        <mxCell id="aGjLEU1FE01erFLO_7JB-15" value="" style="verticalLabelPosition=bottom;verticalAlign=top;html=1;shape=mxgraph.basic.patternFillRect;fillStyle=diag;step=5;fillStrokeWidth=0.2;fillStrokeColor=#dddddd;fillColor=#B2C9AB;strokeColor=#788AA3;fontColor=#46495D;" parent="WIyWlLk6GJQsqaUBKTNV-1" vertex="1">
          <mxGeometry x="310" y="345" width="225" height="120" as="geometry" />
        </mxCell>
        <mxCell id="aGjLEU1FE01erFLO_7JB-3" value="" style="verticalLabelPosition=bottom;verticalAlign=top;html=1;shape=mxgraph.basic.patternFillRect;fillStyle=diag;step=5;fillStrokeWidth=0.2;fillStrokeColor=#dddddd;fillColor=#B2C9AB;strokeColor=#788AA3;fontColor=#46495D;textDirection=ltr;" parent="WIyWlLk6GJQsqaUBKTNV-1" vertex="1">
          <mxGeometry x="307" y="90" width="225" height="150" as="geometry" />
        </mxCell>
        <mxCell id="uLQz29HRp2gs9wNnbRIG-22" style="edgeStyle=orthogonalEdgeStyle;rounded=0;orthogonalLoop=1;jettySize=auto;html=1;entryX=0.497;entryY=0.041;entryDx=0;entryDy=0;entryPerimeter=0;" edge="1" parent="WIyWlLk6GJQsqaUBKTNV-1" source="WIyWlLk6GJQsqaUBKTNV-3" target="uLQz29HRp2gs9wNnbRIG-18">
          <mxGeometry relative="1" as="geometry" />
        </mxCell>
        <mxCell id="WIyWlLk6GJQsqaUBKTNV-3" value="销售发起项目" style="rounded=1;whiteSpace=wrap;html=1;fontSize=12;glass=0;strokeWidth=1;shadow=0;fillColor=#B2C9AB;strokeColor=#788AA3;fontColor=#46495D;" parent="WIyWlLk6GJQsqaUBKTNV-1" vertex="1">
          <mxGeometry x="357.5" y="-40" width="120" height="40" as="geometry" />
        </mxCell>
        <mxCell id="aGjLEU1FE01erFLO_7JB-2" value="" style="edgeStyle=orthogonalEdgeStyle;rounded=0;orthogonalLoop=1;jettySize=auto;html=1;strokeColor=#788AA3;fontColor=#46495D;" parent="WIyWlLk6GJQsqaUBKTNV-1" source="aGjLEU1FE01erFLO_7JB-0" target="aGjLEU1FE01erFLO_7JB-1" edge="1">
          <mxGeometry relative="1" as="geometry" />
        </mxCell>
        <mxCell id="uLQz29HRp2gs9wNnbRIG-14" style="edgeStyle=orthogonalEdgeStyle;rounded=0;orthogonalLoop=1;jettySize=auto;html=1;exitX=0.5;exitY=1;exitDx=0;exitDy=0;entryX=0.501;entryY=0.048;entryDx=0;entryDy=0;entryPerimeter=0;" edge="1" parent="WIyWlLk6GJQsqaUBKTNV-1" source="aGjLEU1FE01erFLO_7JB-0" target="aGjLEU1FE01erFLO_7JB-1">
          <mxGeometry relative="1" as="geometry" />
        </mxCell>
        <mxCell id="aGjLEU1FE01erFLO_7JB-0" value="报价单-销售总监审批" style="rounded=0;whiteSpace=wrap;html=1;fillColor=#B2C9AB;strokeColor=#788AA3;fontColor=#46495D;" parent="WIyWlLk6GJQsqaUBKTNV-1" vertex="1">
          <mxGeometry x="358.5" y="153" width="120" height="30" as="geometry" />
        </mxCell>
        <mxCell id="aGjLEU1FE01erFLO_7JB-5" value="" style="edgeStyle=orthogonalEdgeStyle;rounded=0;orthogonalLoop=1;jettySize=auto;html=1;entryX=0.5;entryY=0;entryDx=0;entryDy=0;strokeColor=#788AA3;fontColor=#46495D;" parent="WIyWlLk6GJQsqaUBKTNV-1" source="aGjLEU1FE01erFLO_7JB-1" target="aGjLEU1FE01erFLO_7JB-6" edge="1">
          <mxGeometry relative="1" as="geometry">
            <mxPoint x="420" y="245" as="targetPoint" />
          </mxGeometry>
        </mxCell>
        <mxCell id="aGjLEU1FE01erFLO_7JB-1" value="报价单-总经理审批" style="whiteSpace=wrap;html=1;rounded=0;fillColor=#B2C9AB;strokeColor=#788AA3;fontColor=#46495D;" parent="WIyWlLk6GJQsqaUBKTNV-1" vertex="1">
          <mxGeometry x="359" y="200" width="120" height="30" as="geometry" />
        </mxCell>
        <mxCell id="aGjLEU1FE01erFLO_7JB-8" style="edgeStyle=orthogonalEdgeStyle;rounded=0;orthogonalLoop=1;jettySize=auto;html=1;entryX=-0.004;entryY=0.617;entryDx=0;entryDy=0;entryPerimeter=0;strokeColor=#788AA3;fontColor=#46495D;exitX=0;exitY=0.5;exitDx=0;exitDy=0;" parent="WIyWlLk6GJQsqaUBKTNV-1" source="aGjLEU1FE01erFLO_7JB-6" target="aGjLEU1FE01erFLO_7JB-7" edge="1">
          <mxGeometry relative="1" as="geometry">
            <Array as="points">
              <mxPoint x="90" y="289" />
              <mxPoint x="90" y="1020" />
            </Array>
          </mxGeometry>
        </mxCell>
        <mxCell id="uLQz29HRp2gs9wNnbRIG-29" style="edgeStyle=orthogonalEdgeStyle;rounded=0;orthogonalLoop=1;jettySize=auto;html=1;" edge="1" parent="WIyWlLk6GJQsqaUBKTNV-1" source="aGjLEU1FE01erFLO_7JB-6" target="aGjLEU1FE01erFLO_7JB-9">
          <mxGeometry relative="1" as="geometry" />
        </mxCell>
        <mxCell id="aGjLEU1FE01erFLO_7JB-6" value="是否中标" style="rhombus;whiteSpace=wrap;html=1;fillColor=none;strokeColor=#788AA3;fontColor=#46495D;" parent="WIyWlLk6GJQsqaUBKTNV-1" vertex="1">
          <mxGeometry x="380" y="258" width="80" height="62" as="geometry" />
        </mxCell>
        <mxCell id="aGjLEU1FE01erFLO_7JB-7" value="结束" style="rounded=1;whiteSpace=wrap;html=1;fillColor=none;strokeColor=#788AA3;fontColor=#46495D;" parent="WIyWlLk6GJQsqaUBKTNV-1" vertex="1">
          <mxGeometry x="360" y="1001" width="120" height="30" as="geometry" />
        </mxCell>
        <mxCell id="aGjLEU1FE01erFLO_7JB-12" value="" style="edgeStyle=orthogonalEdgeStyle;rounded=0;orthogonalLoop=1;jettySize=auto;html=1;strokeColor=#788AA3;fontColor=#46495D;" parent="WIyWlLk6GJQsqaUBKTNV-1" source="aGjLEU1FE01erFLO_7JB-9" target="aGjLEU1FE01erFLO_7JB-11" edge="1">
          <mxGeometry relative="1" as="geometry" />
        </mxCell>
        <mxCell id="aGjLEU1FE01erFLO_7JB-9" value="发起合同签订" style="whiteSpace=wrap;html=1;fillColor=none;strokeColor=#788AA3;fontColor=#46495D;" parent="WIyWlLk6GJQsqaUBKTNV-1" vertex="1">
          <mxGeometry x="360" y="353" width="120" height="20" as="geometry" />
        </mxCell>
        <mxCell id="aGjLEU1FE01erFLO_7JB-14" value="" style="edgeStyle=orthogonalEdgeStyle;rounded=0;orthogonalLoop=1;jettySize=auto;html=1;strokeColor=#788AA3;fontColor=#46495D;" parent="WIyWlLk6GJQsqaUBKTNV-1" source="aGjLEU1FE01erFLO_7JB-11" target="aGjLEU1FE01erFLO_7JB-13" edge="1">
          <mxGeometry relative="1" as="geometry" />
        </mxCell>
        <mxCell id="aGjLEU1FE01erFLO_7JB-11" value="合同签订-销售总监审批" style="whiteSpace=wrap;html=1;fillColor=none;strokeColor=#788AA3;fontColor=#46495D;" parent="WIyWlLk6GJQsqaUBKTNV-1" vertex="1">
          <mxGeometry x="360" y="391" width="120" height="30" as="geometry" />
        </mxCell>
        <mxCell id="aGjLEU1FE01erFLO_7JB-17" value="" style="edgeStyle=orthogonalEdgeStyle;rounded=0;orthogonalLoop=1;jettySize=auto;html=1;strokeColor=#788AA3;fontColor=#46495D;" parent="WIyWlLk6GJQsqaUBKTNV-1" source="aGjLEU1FE01erFLO_7JB-13" target="aGjLEU1FE01erFLO_7JB-16" edge="1">
          <mxGeometry relative="1" as="geometry" />
        </mxCell>
        <mxCell id="aGjLEU1FE01erFLO_7JB-20" value="" style="edgeStyle=orthogonalEdgeStyle;rounded=0;orthogonalLoop=1;jettySize=auto;html=1;strokeColor=#788AA3;fontColor=#46495D;" parent="WIyWlLk6GJQsqaUBKTNV-1" source="aGjLEU1FE01erFLO_7JB-13" target="aGjLEU1FE01erFLO_7JB-19" edge="1">
          <mxGeometry relative="1" as="geometry" />
        </mxCell>
        <mxCell id="aGjLEU1FE01erFLO_7JB-13" value="合同签订-总经理审批" style="whiteSpace=wrap;html=1;fillColor=none;strokeColor=#788AA3;fontColor=#46495D;" parent="WIyWlLk6GJQsqaUBKTNV-1" vertex="1">
          <mxGeometry x="360" y="437" width="120" height="20" as="geometry" />
        </mxCell>
        <mxCell id="aGjLEU1FE01erFLO_7JB-18" style="edgeStyle=orthogonalEdgeStyle;rounded=0;orthogonalLoop=1;jettySize=auto;html=1;entryX=1;entryY=0.5;entryDx=0;entryDy=0;strokeColor=#788AA3;fontColor=#46495D;" parent="WIyWlLk6GJQsqaUBKTNV-1" source="aGjLEU1FE01erFLO_7JB-16" target="aGjLEU1FE01erFLO_7JB-7" edge="1">
          <mxGeometry relative="1" as="geometry">
            <Array as="points">
              <mxPoint x="640" y="1016" />
            </Array>
          </mxGeometry>
        </mxCell>
        <mxCell id="aGjLEU1FE01erFLO_7JB-16" value="收预付款" style="whiteSpace=wrap;html=1;fillColor=none;strokeColor=#788AA3;fontColor=#46495D;" parent="WIyWlLk6GJQsqaUBKTNV-1" vertex="1">
          <mxGeometry x="580" y="434" width="120" height="26" as="geometry" />
        </mxCell>
        <mxCell id="aGjLEU1FE01erFLO_7JB-25" value="" style="edgeStyle=orthogonalEdgeStyle;rounded=0;orthogonalLoop=1;jettySize=auto;html=1;entryX=0;entryY=0.5;entryDx=0;entryDy=0;strokeColor=#788AA3;fontColor=#46495D;" parent="WIyWlLk6GJQsqaUBKTNV-1" source="aGjLEU1FE01erFLO_7JB-19" target="aGjLEU1FE01erFLO_7JB-26" edge="1">
          <mxGeometry relative="1" as="geometry">
            <mxPoint x="580" y="521" as="targetPoint" />
            <Array as="points">
              <mxPoint x="520" y="491" />
              <mxPoint x="520" y="491" />
            </Array>
          </mxGeometry>
        </mxCell>
        <mxCell id="uLQz29HRp2gs9wNnbRIG-0" value="" style="edgeStyle=orthogonalEdgeStyle;rounded=0;orthogonalLoop=1;jettySize=auto;html=1;" edge="1" parent="WIyWlLk6GJQsqaUBKTNV-1" source="aGjLEU1FE01erFLO_7JB-19" target="aGjLEU1FE01erFLO_7JB-15">
          <mxGeometry relative="1" as="geometry" />
        </mxCell>
        <mxCell id="uLQz29HRp2gs9wNnbRIG-1" value="" style="edgeStyle=orthogonalEdgeStyle;rounded=0;orthogonalLoop=1;jettySize=auto;html=1;" edge="1" parent="WIyWlLk6GJQsqaUBKTNV-1" source="aGjLEU1FE01erFLO_7JB-19" target="aGjLEU1FE01erFLO_7JB-15">
          <mxGeometry relative="1" as="geometry" />
        </mxCell>
        <mxCell id="uLQz29HRp2gs9wNnbRIG-2" value="" style="edgeStyle=orthogonalEdgeStyle;rounded=0;orthogonalLoop=1;jettySize=auto;html=1;" edge="1" parent="WIyWlLk6GJQsqaUBKTNV-1" source="aGjLEU1FE01erFLO_7JB-19" target="aGjLEU1FE01erFLO_7JB-15">
          <mxGeometry relative="1" as="geometry" />
        </mxCell>
        <mxCell id="uLQz29HRp2gs9wNnbRIG-3" value="" style="edgeStyle=orthogonalEdgeStyle;rounded=0;orthogonalLoop=1;jettySize=auto;html=1;" edge="1" parent="WIyWlLk6GJQsqaUBKTNV-1" source="aGjLEU1FE01erFLO_7JB-19" target="aGjLEU1FE01erFLO_7JB-15">
          <mxGeometry relative="1" as="geometry" />
        </mxCell>
        <mxCell id="uLQz29HRp2gs9wNnbRIG-7" style="edgeStyle=orthogonalEdgeStyle;rounded=0;orthogonalLoop=1;jettySize=auto;html=1;exitX=0.5;exitY=1;exitDx=0;exitDy=0;entryX=0.5;entryY=0;entryDx=0;entryDy=0;" edge="1" parent="WIyWlLk6GJQsqaUBKTNV-1" source="aGjLEU1FE01erFLO_7JB-19" target="uLQz29HRp2gs9wNnbRIG-6">
          <mxGeometry relative="1" as="geometry">
            <mxPoint x="420" y="521" as="targetPoint" />
          </mxGeometry>
        </mxCell>
        <mxCell id="aGjLEU1FE01erFLO_7JB-19" value="销售发起工程" style="whiteSpace=wrap;html=1;fillColor=none;strokeColor=#788AA3;fontColor=#46495D;" parent="WIyWlLk6GJQsqaUBKTNV-1" vertex="1">
          <mxGeometry x="360" y="481" width="120" height="20" as="geometry" />
        </mxCell>
        <mxCell id="aGjLEU1FE01erFLO_7JB-24" value="" style="edgeStyle=orthogonalEdgeStyle;rounded=0;orthogonalLoop=1;jettySize=auto;html=1;strokeColor=#788AA3;fontColor=#46495D;" parent="WIyWlLk6GJQsqaUBKTNV-1" source="aGjLEU1FE01erFLO_7JB-21" target="aGjLEU1FE01erFLO_7JB-23" edge="1">
          <mxGeometry relative="1" as="geometry" />
        </mxCell>
        <mxCell id="aGjLEU1FE01erFLO_7JB-21" value="采购-指定工程外包商，签订外包合同" style="whiteSpace=wrap;html=1;fillColor=none;strokeColor=#788AA3;fontColor=#46495D;" parent="WIyWlLk6GJQsqaUBKTNV-1" vertex="1">
          <mxGeometry x="359.5" y="641" width="120" height="30" as="geometry" />
        </mxCell>
        <mxCell id="aGjLEU1FE01erFLO_7JB-30" style="edgeStyle=orthogonalEdgeStyle;rounded=0;orthogonalLoop=1;jettySize=auto;html=1;exitX=0.5;exitY=1;exitDx=0;exitDy=0;strokeColor=#788AA3;fontColor=#46495D;" parent="WIyWlLk6GJQsqaUBKTNV-1" source="aGjLEU1FE01erFLO_7JB-37" target="aGjLEU1FE01erFLO_7JB-7" edge="1">
          <mxGeometry relative="1" as="geometry">
            <mxPoint x="410" y="801" as="sourcePoint" />
          </mxGeometry>
        </mxCell>
        <mxCell id="aGjLEU1FE01erFLO_7JB-32" style="edgeStyle=orthogonalEdgeStyle;rounded=0;orthogonalLoop=1;jettySize=auto;html=1;exitX=0.5;exitY=1;exitDx=0;exitDy=0;entryX=0.5;entryY=0;entryDx=0;entryDy=0;strokeColor=#788AA3;fontColor=#46495D;" parent="WIyWlLk6GJQsqaUBKTNV-1" source="aGjLEU1FE01erFLO_7JB-23" target="aGjLEU1FE01erFLO_7JB-31" edge="1">
          <mxGeometry relative="1" as="geometry" />
        </mxCell>
        <mxCell id="aGjLEU1FE01erFLO_7JB-23" value="工程施工-开始" style="whiteSpace=wrap;html=1;fillColor=none;strokeColor=#788AA3;fontColor=#46495D;" parent="WIyWlLk6GJQsqaUBKTNV-1" vertex="1">
          <mxGeometry x="360" y="711" width="120" height="20" as="geometry" />
        </mxCell>
        <mxCell id="aGjLEU1FE01erFLO_7JB-42" value="" style="edgeStyle=orthogonalEdgeStyle;rounded=0;orthogonalLoop=1;jettySize=auto;html=1;strokeColor=#788AA3;fontColor=#46495D;" parent="WIyWlLk6GJQsqaUBKTNV-1" source="aGjLEU1FE01erFLO_7JB-26" target="aGjLEU1FE01erFLO_7JB-41" edge="1">
          <mxGeometry relative="1" as="geometry" />
        </mxCell>
        <mxCell id="aGjLEU1FE01erFLO_7JB-26" value="发起采购" style="whiteSpace=wrap;html=1;fillColor=none;strokeColor=#788AA3;fontColor=#46495D;" parent="WIyWlLk6GJQsqaUBKTNV-1" vertex="1">
          <mxGeometry x="550" y="481" width="60" height="20" as="geometry" />
        </mxCell>
        <mxCell id="aGjLEU1FE01erFLO_7JB-34" style="edgeStyle=orthogonalEdgeStyle;rounded=0;orthogonalLoop=1;jettySize=auto;html=1;exitX=0.5;exitY=1;exitDx=0;exitDy=0;entryX=0.5;entryY=0;entryDx=0;entryDy=0;strokeColor=#788AA3;fontColor=#46495D;" parent="WIyWlLk6GJQsqaUBKTNV-1" source="aGjLEU1FE01erFLO_7JB-31" target="aGjLEU1FE01erFLO_7JB-33" edge="1">
          <mxGeometry relative="1" as="geometry" />
        </mxCell>
        <mxCell id="aGjLEU1FE01erFLO_7JB-31" value="工程施工-结束" style="whiteSpace=wrap;html=1;fillColor=none;strokeColor=#788AA3;fontColor=#46495D;" parent="WIyWlLk6GJQsqaUBKTNV-1" vertex="1">
          <mxGeometry x="360" y="741" width="120" height="20" as="geometry" />
        </mxCell>
        <mxCell id="aGjLEU1FE01erFLO_7JB-36" value="" style="edgeStyle=orthogonalEdgeStyle;rounded=0;orthogonalLoop=1;jettySize=auto;html=1;strokeColor=#788AA3;fontColor=#46495D;" parent="WIyWlLk6GJQsqaUBKTNV-1" source="aGjLEU1FE01erFLO_7JB-33" target="aGjLEU1FE01erFLO_7JB-35" edge="1">
          <mxGeometry relative="1" as="geometry" />
        </mxCell>
        <mxCell id="aGjLEU1FE01erFLO_7JB-33" value="工程验收-莫军军" style="whiteSpace=wrap;html=1;fillColor=none;strokeColor=#788AA3;fontColor=#46495D;" parent="WIyWlLk6GJQsqaUBKTNV-1" vertex="1">
          <mxGeometry x="360" y="781" width="120" height="20" as="geometry" />
        </mxCell>
        <mxCell id="aGjLEU1FE01erFLO_7JB-38" value="" style="edgeStyle=orthogonalEdgeStyle;rounded=0;orthogonalLoop=1;jettySize=auto;html=1;strokeColor=#788AA3;fontColor=#46495D;" parent="WIyWlLk6GJQsqaUBKTNV-1" source="aGjLEU1FE01erFLO_7JB-35" target="aGjLEU1FE01erFLO_7JB-37" edge="1">
          <mxGeometry relative="1" as="geometry" />
        </mxCell>
        <mxCell id="aGjLEU1FE01erFLO_7JB-35" value="质控验收-张靖宇" style="whiteSpace=wrap;html=1;fillColor=none;strokeColor=#788AA3;fontColor=#46495D;" parent="WIyWlLk6GJQsqaUBKTNV-1" vertex="1">
          <mxGeometry x="360" y="831" width="120" height="20" as="geometry" />
        </mxCell>
        <mxCell id="aGjLEU1FE01erFLO_7JB-37" value="备案-张靖宇" style="whiteSpace=wrap;html=1;fillColor=none;strokeColor=#788AA3;fontColor=#46495D;" parent="WIyWlLk6GJQsqaUBKTNV-1" vertex="1">
          <mxGeometry x="360" y="871" width="120" height="20" as="geometry" />
        </mxCell>
        <mxCell id="aGjLEU1FE01erFLO_7JB-44" value="" style="edgeStyle=orthogonalEdgeStyle;rounded=0;orthogonalLoop=1;jettySize=auto;html=1;strokeColor=#788AA3;fontColor=#46495D;" parent="WIyWlLk6GJQsqaUBKTNV-1" source="aGjLEU1FE01erFLO_7JB-41" target="aGjLEU1FE01erFLO_7JB-43" edge="1">
          <mxGeometry relative="1" as="geometry" />
        </mxCell>
        <mxCell id="aGjLEU1FE01erFLO_7JB-41" value="采购审批" style="whiteSpace=wrap;html=1;fillColor=none;strokeColor=#788AA3;fontColor=#46495D;" parent="WIyWlLk6GJQsqaUBKTNV-1" vertex="1">
          <mxGeometry x="550" y="521" width="60" height="20" as="geometry" />
        </mxCell>
        <mxCell id="aGjLEU1FE01erFLO_7JB-46" value="" style="edgeStyle=orthogonalEdgeStyle;rounded=0;orthogonalLoop=1;jettySize=auto;html=1;strokeColor=#788AA3;fontColor=#46495D;" parent="WIyWlLk6GJQsqaUBKTNV-1" source="aGjLEU1FE01erFLO_7JB-43" target="aGjLEU1FE01erFLO_7JB-45" edge="1">
          <mxGeometry relative="1" as="geometry" />
        </mxCell>
        <mxCell id="aGjLEU1FE01erFLO_7JB-43" value="下单采购" style="whiteSpace=wrap;html=1;fillColor=none;strokeColor=#788AA3;fontColor=#46495D;" parent="WIyWlLk6GJQsqaUBKTNV-1" vertex="1">
          <mxGeometry x="550" y="571" width="60" height="20" as="geometry" />
        </mxCell>
        <mxCell id="aGjLEU1FE01erFLO_7JB-47" style="edgeStyle=orthogonalEdgeStyle;rounded=0;orthogonalLoop=1;jettySize=auto;html=1;exitX=0.488;exitY=0.943;exitDx=0;exitDy=0;entryX=1;entryY=0.5;entryDx=0;entryDy=0;exitPerimeter=0;strokeColor=#788AA3;fontColor=#46495D;" parent="WIyWlLk6GJQsqaUBKTNV-1" source="aGjLEU1FE01erFLO_7JB-48" target="aGjLEU1FE01erFLO_7JB-23" edge="1">
          <mxGeometry relative="1" as="geometry">
            <Array as="points">
              <mxPoint x="579" y="721" />
            </Array>
          </mxGeometry>
        </mxCell>
        <mxCell id="aGjLEU1FE01erFLO_7JB-45" value="确认到货" style="whiteSpace=wrap;html=1;fillColor=none;strokeColor=#788AA3;fontColor=#46495D;" parent="WIyWlLk6GJQsqaUBKTNV-1" vertex="1">
          <mxGeometry x="550" y="621" width="60" height="20" as="geometry" />
        </mxCell>
        <mxCell id="uLQz29HRp2gs9wNnbRIG-8" style="edgeStyle=orthogonalEdgeStyle;rounded=0;orthogonalLoop=1;jettySize=auto;html=1;entryX=0.5;entryY=0;entryDx=0;entryDy=0;" edge="1" parent="WIyWlLk6GJQsqaUBKTNV-1" source="uLQz29HRp2gs9wNnbRIG-6" target="uLQz29HRp2gs9wNnbRIG-9">
          <mxGeometry relative="1" as="geometry">
            <mxPoint x="180" y="611" as="targetPoint" />
          </mxGeometry>
        </mxCell>
        <mxCell id="uLQz29HRp2gs9wNnbRIG-23" value="否" style="edgeLabel;html=1;align=center;verticalAlign=middle;resizable=0;points=[];" vertex="1" connectable="0" parent="uLQz29HRp2gs9wNnbRIG-8">
          <mxGeometry x="-0.6625" y="2" relative="1" as="geometry">
            <mxPoint as="offset" />
          </mxGeometry>
        </mxCell>
        <mxCell id="uLQz29HRp2gs9wNnbRIG-11" style="edgeStyle=orthogonalEdgeStyle;rounded=0;orthogonalLoop=1;jettySize=auto;html=1;exitX=0.5;exitY=1;exitDx=0;exitDy=0;" edge="1" parent="WIyWlLk6GJQsqaUBKTNV-1" source="uLQz29HRp2gs9wNnbRIG-6" target="aGjLEU1FE01erFLO_7JB-21">
          <mxGeometry relative="1" as="geometry" />
        </mxCell>
        <mxCell id="uLQz29HRp2gs9wNnbRIG-24" value="是" style="edgeLabel;html=1;align=center;verticalAlign=middle;resizable=0;points=[];" vertex="1" connectable="0" parent="uLQz29HRp2gs9wNnbRIG-11">
          <mxGeometry x="-0.1666" relative="1" as="geometry">
            <mxPoint as="offset" />
          </mxGeometry>
        </mxCell>
        <mxCell id="uLQz29HRp2gs9wNnbRIG-6" value="是否已发起工程勘查" style="rhombus;whiteSpace=wrap;html=1;" vertex="1" parent="WIyWlLk6GJQsqaUBKTNV-1">
          <mxGeometry x="380" y="531" width="80" height="80" as="geometry" />
        </mxCell>
        <mxCell id="uLQz29HRp2gs9wNnbRIG-10" style="edgeStyle=orthogonalEdgeStyle;rounded=0;orthogonalLoop=1;jettySize=auto;html=1;entryX=0;entryY=0.5;entryDx=0;entryDy=0;" edge="1" parent="WIyWlLk6GJQsqaUBKTNV-1" source="uLQz29HRp2gs9wNnbRIG-9" target="aGjLEU1FE01erFLO_7JB-21">
          <mxGeometry relative="1" as="geometry" />
        </mxCell>
        <mxCell id="uLQz29HRp2gs9wNnbRIG-9" value="莫军军--工程勘查，上传勘查表" style="rounded=0;whiteSpace=wrap;html=1;" vertex="1" parent="WIyWlLk6GJQsqaUBKTNV-1">
          <mxGeometry x="150" y="641" width="120" height="30" as="geometry" />
        </mxCell>
        <mxCell id="uLQz29HRp2gs9wNnbRIG-13" style="edgeStyle=orthogonalEdgeStyle;rounded=0;orthogonalLoop=1;jettySize=auto;html=1;entryX=0.494;entryY=0.005;entryDx=0;entryDy=0;entryPerimeter=0;" edge="1" parent="WIyWlLk6GJQsqaUBKTNV-1" source="uLQz29HRp2gs9wNnbRIG-12" target="aGjLEU1FE01erFLO_7JB-0">
          <mxGeometry relative="1" as="geometry">
            <mxPoint x="420.5" y="160" as="targetPoint" />
            <Array as="points">
              <mxPoint x="418" y="153" />
              <mxPoint x="418" y="153" />
            </Array>
          </mxGeometry>
        </mxCell>
        <mxCell id="uLQz29HRp2gs9wNnbRIG-12" value="上传报价单" style="rounded=0;whiteSpace=wrap;html=1;fillColor=#B2C9AB;strokeColor=#788AA3;fontColor=#46495D;" vertex="1" parent="WIyWlLk6GJQsqaUBKTNV-1">
          <mxGeometry x="358.5" y="103" width="120" height="30" as="geometry" />
        </mxCell>
        <mxCell id="uLQz29HRp2gs9wNnbRIG-19" value="" style="edgeStyle=orthogonalEdgeStyle;rounded=0;orthogonalLoop=1;jettySize=auto;html=1;entryX=0;entryY=0.5;entryDx=0;entryDy=0;" edge="1" parent="WIyWlLk6GJQsqaUBKTNV-1" source="uLQz29HRp2gs9wNnbRIG-18" target="uLQz29HRp2gs9wNnbRIG-26">
          <mxGeometry relative="1" as="geometry">
            <mxPoint x="590" y="44" as="targetPoint" />
          </mxGeometry>
        </mxCell>
        <mxCell id="uLQz29HRp2gs9wNnbRIG-20" value="是" style="edgeLabel;html=1;align=center;verticalAlign=middle;resizable=0;points=[];" vertex="1" connectable="0" parent="uLQz29HRp2gs9wNnbRIG-19">
          <mxGeometry x="-0.0351" y="-1" relative="1" as="geometry">
            <mxPoint as="offset" />
          </mxGeometry>
        </mxCell>
        <mxCell id="uLQz29HRp2gs9wNnbRIG-21" style="edgeStyle=orthogonalEdgeStyle;rounded=0;orthogonalLoop=1;jettySize=auto;html=1;exitX=0.5;exitY=1;exitDx=0;exitDy=0;entryX=0.5;entryY=0;entryDx=0;entryDy=0;" edge="1" parent="WIyWlLk6GJQsqaUBKTNV-1" source="uLQz29HRp2gs9wNnbRIG-18" target="uLQz29HRp2gs9wNnbRIG-12">
          <mxGeometry relative="1" as="geometry" />
        </mxCell>
        <mxCell id="uLQz29HRp2gs9wNnbRIG-25" value="否" style="edgeLabel;html=1;align=center;verticalAlign=middle;resizable=0;points=[];" vertex="1" connectable="0" parent="uLQz29HRp2gs9wNnbRIG-21">
          <mxGeometry x="-0.3706" relative="1" as="geometry">
            <mxPoint as="offset" />
          </mxGeometry>
        </mxCell>
        <mxCell id="uLQz29HRp2gs9wNnbRIG-18" value="是否需要现场勘查" style="rhombus;whiteSpace=wrap;html=1;" vertex="1" parent="WIyWlLk6GJQsqaUBKTNV-1">
          <mxGeometry x="381" y="24" width="73" height="40" as="geometry" />
        </mxCell>
        <mxCell id="uLQz29HRp2gs9wNnbRIG-27" style="edgeStyle=orthogonalEdgeStyle;rounded=0;orthogonalLoop=1;jettySize=auto;html=1;entryX=1;entryY=0.5;entryDx=0;entryDy=0;" edge="1" parent="WIyWlLk6GJQsqaUBKTNV-1" source="uLQz29HRp2gs9wNnbRIG-26" target="uLQz29HRp2gs9wNnbRIG-12">
          <mxGeometry relative="1" as="geometry">
            <mxPoint x="620.0000000000002" y="130" as="targetPoint" />
            <Array as="points">
              <mxPoint x="630" y="118" />
            </Array>
          </mxGeometry>
        </mxCell>
        <mxCell id="uLQz29HRp2gs9wNnbRIG-26" value="莫军军--工程勘查，上传勘查表" style="rounded=0;whiteSpace=wrap;html=1;" vertex="1" parent="WIyWlLk6GJQsqaUBKTNV-1">
          <mxGeometry x="570" y="29" width="120" height="30" as="geometry" />
        </mxCell>
      </root>
    </mxGraphModel>
  </diagram>
</mxfile>
